<?xml version="1.0" standalone="no"?>
<!DOCTYPE svg PUBLIC "-//W3C//DTD SVG 20010904//EN"
 "http://www.w3.org/TR/2001/REC-SVG-20010904/DTD/svg10.dtd">
<svg version="1.0" xmlns="http://www.w3.org/2000/svg"
 width="199.000000pt" height="248.000000pt" viewBox="0 0 199.000000 248.000000"
 preserveAspectRatio="xMidYMid meet">
<metadata>
Created by potrace 1.16, written by Peter Selinger 2001-2019
</metadata>
<g transform="translate(0.000000,248.000000) scale(0.100000,-0.100000)"
fill="#000000" stroke="none">
<path d="M617 1999 c-69 -22 -149 -81 -171 -127 -34 -69 -14 -149 52 -208 40
-36 114 -72 163 -80 30 -5 50 -16 68 -37 41 -48 171 -99 171 -67 0 6 -4 10
-10 10 -15 0 -90 70 -90 84 0 6 10 12 21 13 37 3 124 51 162 89 63 64 73 137
27 206 -74 112 -247 163 -393 117z"/>
<path d="M1051 1391 c-6 -10 -8 -26 -5 -37 2 -10 0 -32 -4 -49 -8 -29 -9 -29
-16 18 -4 29 -14 51 -23 54 -18 7 -31 -11 -27 -40 4 -35 14 -90 20 -109 12
-39 -14 -15 -30 27 -13 32 -23 45 -37 45 -23 0 -24 -21 -4 -60 8 -16 20 -61
25 -101 6 -40 17 -81 26 -90 15 -17 15 -87 -1 -321 -2 -35 -7 -110 -11 -168
-3 -58 -8 -121 -10 -140 -1 -19 -3 -41 -3 -47 -1 -9 -23 -13 -74 -13 l-74 0
-6 198 c-4 108 -4 237 0 287 5 77 10 92 29 108 12 9 28 34 35 55 7 20 18 47
26 59 18 27 10 43 -22 43 -16 0 -25 -7 -29 -26 -12 -45 -19 -18 -20 68 -1 67
-4 83 -16 83 -11 0 -17 -15 -21 -50 -6 -48 -6 -49 -8 -10 -2 61 -11 86 -30 83
-11 -2 -18 -18 -22 -58 -3 -32 -6 -42 -7 -23 -3 44 -12 63 -29 63 -13 0 -15
-11 -10 -67 l6 -68 -21 38 c-38 64 -57 24 -22 -47 8 -16 14 -47 14 -68 0 -21
7 -49 16 -63 13 -20 14 -46 10 -157 -3 -73 -9 -167 -12 -208 -8 -90 -11 -130
-13 -192 l-1 -48 -86 0 -86 0 6 82 c4 46 9 97 11 113 3 17 7 56 10 88 3 35 13
69 25 85 11 15 21 39 24 55 3 15 14 40 25 56 37 52 14 89 -23 39 -15 -20 -16
-21 -11 -3 4 11 9 37 12 58 5 29 2 37 -10 37 -10 0 -21 -14 -26 -32 -10 -31
-10 -30 -5 10 7 49 -12 58 -39 20 -13 -19 -16 -20 -16 -5 -1 21 -27 23 -35 1
-3 -9 -6 -34 -7 -57 -1 -48 -16 -108 -18 -71 -1 27 -38 61 -51 48 -7 -7 -6
-24 3 -50 8 -21 12 -45 9 -52 -2 -8 6 -27 18 -44 25 -34 23 -76 -11 -243 -5
-27 -12 -66 -15 -85 -3 -19 -8 -38 -11 -43 -2 -4 -80 -7 -174 -7 l-169 0 0
-50 0 -50 995 0 995 0 0 50 0 50 -247 0 -248 0 -32 128 c-62 244 -76 307 -75
347 2 67 9 158 16 198 9 47 -9 50 -29 5 l-14 -33 -2 30 c-1 17 -3 37 -5 45 -1
8 -2 21 -3 28 -2 25 -19 11 -29 -25 l-10 -38 -1 31 c-1 38 -27 66 -37 40 -3
-9 -4 -25 -1 -36 3 -11 2 -20 -3 -20 -4 0 -10 9 -13 20 -3 11 -10 20 -16 20
-21 0 -24 -30 -7 -89 20 -72 20 -81 0 -53 -15 21 -44 29 -57 15 -4 -3 4 -21
18 -39 14 -18 25 -37 25 -43 0 -6 13 -25 29 -43 24 -28 32 -54 54 -173 15 -77
29 -167 33 -200 4 -33 10 -70 15 -81 4 -12 5 -25 2 -28 -4 -3 -52 -6 -109 -6
-84 0 -103 3 -108 16 -3 9 -6 157 -6 329 l0 313 24 15 c13 9 30 33 36 54 7 21
21 52 31 69 19 31 25 65 13 77 -12 12 -44 -14 -63 -51 l-19 -37 5 113 c5 108
5 112 -15 112 -26 0 -31 -8 -34 -53 -2 -19 -7 -33 -12 -30 -4 3 -5 19 -2 35
12 58 -21 111 -43 69z"/>
</g>
</svg>
